<svg width="0" height="0" class="hidden">
  <symbol viewBox="0 0 24 24" fill="none" xmlns="http://www.w3.org/2000/svg" id="plus">
    <path d="M7 7H15V15H7V7Z" fill="white"/>
    <path fill-rule="evenodd" clip-rule="evenodd" d="M11.25 2.25C6.27923 2.25 2.25 6.27923 2.25 11.25C2.25 16.2208 6.27923 20.25 11.25 20.25C16.2208 20.25 20.25 16.2208 20.25 11.25C20.25 6.27923 16.2208 2.25 11.25 2.25ZM11.9423 8.48077C11.9423 8.29716 11.8694 8.12107 11.7395 7.99123C11.6097 7.8614 11.4336 7.78846 11.25 7.78846C11.0664 7.78846 10.8903 7.8614 10.7605 7.99123C10.6306 8.12107 10.5577 8.29716 10.5577 8.48077V10.5577H8.48077C8.29716 10.5577 8.12107 10.6306 7.99123 10.7605C7.8614 10.8903 7.78846 11.0664 7.78846 11.25C7.78846 11.4336 7.8614 11.6097 7.99123 11.7395C8.12107 11.8694 8.29716 11.9423 8.48077 11.9423H10.5577V14.0192C10.5577 14.2028 10.6306 14.3789 10.7605 14.5088C10.8903 14.6386 11.0664 14.7115 11.25 14.7115C11.4336 14.7115 11.6097 14.6386 11.7395 14.5088C11.8694 14.3789 11.9423 14.2028 11.9423 14.0192V11.9423H14.0192C14.2028 11.9423 14.3789 11.8694 14.5088 11.7395C14.6386 11.6097 14.7115 11.4336 14.7115 11.25C14.7115 11.0664 14.6386 10.8903 14.5088 10.7605C14.3789 10.6306 14.2028 10.5577 14.0192 10.5577H11.9423V8.48077Z" fill="#F32744"/>
  </symbol>

    <symbol viewBox="0 0 24 24" fill="none" xmlns="http://www.w3.org/2000/svg" id="pencil">
    <path d="M8.86262 19.6895H4.69466C4.51043 19.6895 4.33374 19.6163 4.20346 19.486C4.07319 19.3557 4 19.179 4 18.9948V15.1146C4 15.0233 4.01797 14.933 4.05288 14.8487C4.08779 14.7645 4.13896 14.6879 4.20346 14.6234L14.6234 4.20346C14.7536 4.07319 14.9303 4 15.1146 4C15.2988 4 15.4755 4.07319 15.6058 4.20346L19.486 8.08369C19.6163 8.21396 19.6895 8.39065 19.6895 8.57489C19.6895 8.75912 19.6163 8.93581 19.486 9.06608L8.86262 19.6895Z" stroke="currentColor" stroke-width="1.5" stroke-linecap="round" stroke-linejoin="round"/>
    <path d="M12.3359 6.49121L17.1986 11.3538" stroke="currentColor" stroke-width="1.5" stroke-linecap="round" stroke-linejoin="round"/>
  </symbol>

  <symbol
    xmlns='http://www.w3.org/2000/svg'
    fill='none'
    viewBox='0 0 24 24'
    strokeWidth='3'
    stroke='currentColor'
    id='check'
  >
    <path
      strokeLinecap='round'
      strokeLinejoin='round'
      d='M4.5 12.75l6 6 9-13.5'
    />
  </symbol>

  <symbol xmlns="http://www.w3.org/2000/svg" fill="none" viewBox="0 0 24 24" stroke-width="1.5" stroke="currentColor" id="trash">
    <path stroke-linecap="round" stroke-linejoin="round" d="M14.74 9l-.346 9m-4.788 0L9.26 9m9.968-3.21c.342.052.682.107 1.022.166m-1.022-.165L18.16 19.673a2.25 2.25 0 01-2.244 2.077H8.084a2.25 2.25 0 01-2.244-2.077L4.772 5.79m14.456 0a48.108 48.108 0 00-3.478-.397m-12 .562c.34-.059.68-.114 1.022-.165m0 0a48.11 48.11 0 013.478-.397m7.5 0v-.916c0-1.18-.91-2.164-2.09-2.201a51.964 51.964 0 00-3.32 0c-1.18.037-2.09 1.022-2.09 2.201v.916m7.5 0a48.667 48.667 0 00-7.5 0" />
  </symbol>


  <symbol xmlns="http://www.w3.org/2000/svg" fill="none" viewBox="0 0 24 24" stroke-width="1.5" stroke="currentColor" id="chevronDown">
    <path stroke-linecap="round" stroke-linejoin="round" d="M19.5 8.25l-7.5 7.5-7.5-7.5" />
  </symbol>
  
  <symbol xmlns="http://www.w3.org/2000/svg" fill="none" stroke-width="1.5" stroke="currentColor" viewBox="0 0 24 24" id="lightTheme">
    <path stroke-linecap="round" stroke-linejoin="round" d="M12 3v2.25m6.364.386l-1.591 1.591M21 12h-2.25m-.386 6.364l-1.591-1.591M12 18.75V21m-4.773-4.227l-1.591 1.591M5.25 12H3m4.227-4.773L5.636 5.636M15.75 12a3.75 3.75 0 11-7.5 0 3.75 3.75 0 017.5 0z"></path>
  </symbol>
  <symbol xmlns="http://www.w3.org/2000/svg" fill="none" stroke-width="1.5" stroke="currentColor" viewBox="0 0 24 24" id="darkTheme">
    <path stroke-linecap="round" stroke-linejoin="round" d="M21.752 15.002A9.718 9.718 0 0118 15.75c-5.385 0-9.75-4.365-9.75-9.75 0-1.33.266-2.597.748-3.752A9.753 9.753 0 003 11.25C3 16.635 7.365 21 12.75 21a9.753 9.753 0 009.002-5.998z" />
  </symbol>

  <symbol xmlns="http://www.w3.org/2000/svg" fill="none" stroke-width="2" stroke="currentColor" viewBox="0 0 24 24" id="close">
    <path stroke-linecap="round" stroke-linejoin="round" d="M6 18L18 6M6 6l12 12"></path>
  </symbol>
  
</svg>